<svg width="73" height="73" viewBox="0 0 73 73" fill="none" xmlns="http://www.w3.org/2000/svg">
<circle cx="36.5" cy="36.5" r="34.5" transform="matrix(-1 0 0 1 73 0)" stroke="#19B6E6" stroke-width="4"/>
<path d="M49.7678 35.2322C50.7441 36.2085 50.7441 37.7915 49.7678 38.7678L33.8579 54.6777C32.8816 55.654 31.2986 55.654 30.3223 54.6777C29.346 53.7014 29.346 52.1184 30.3223 51.1421L44.4645 37L30.3223 22.8579C29.346 21.8816 29.346 20.2986 30.3223 19.3223C31.2986 18.346 32.8816 18.346 33.8579 19.3223L49.7678 35.2322ZM47 34.5L48 34.5L48 39.5L47 39.5L47 34.5Z" fill="#19B6E6"/>
</svg>
