<svg width="114" height="53" viewBox="0 0 114 53" fill="none" xmlns="http://www.w3.org/2000/svg">
<path d="M6.78378 33.8249C5.02973 30.693 2.86374 30.8496 2 31.3194V56.8434H119.801V12.2148C117.409 12.789 113.76 14.6954 107.642 12.2148C101.463 9.70936 101.064 13.311 99.6689 18.3219C98.4025 22.8702 95.2838 18.9484 89.1047 24.1159C84.137 28.2703 81.8493 11.2753 80.7331 6.8906C79.9358 3.75873 76.9459 2.97584 76.1487 6.8906C75.3513 12.2148 74.8331 22.6126 74.3547 24.1159C73.6072 26.4649 72.0308 26.7487 70.7669 25.8385C68.375 24.1159 68.7737 18.0406 68.7737 13.7808C68.7737 9.70936 65.692 9.70936 65.1858 12.2148C63.1926 22.0802 62.9932 37.1034 59.6047 37.2698C57.0534 37.3951 56.2162 33.5116 54.8209 29.7536C54.2976 28.344 52.4291 27.3734 50.0372 29.7536C47.0473 32.7289 46.0507 30.0668 45.8514 28.9703C45.652 27.8737 44.6769 22.0965 44.4561 10.6494C44.2568 0.314225 39.4215 0.783906 39.0743 5.01185C37.8784 19.5751 39.2879 39.3054 33.6926 39.3054C30.5034 39.3054 30.5034 34.1261 30.5034 29.9098C30.5034 26.4648 27.9122 26.1516 27.1149 28.9703C26.3176 31.7889 25.7196 35.0778 23.1284 35.0778C20.1121 35.0778 19.1419 31.006 19.1419 27.8741C19.1419 24.7422 18.7412 20.9942 17.1486 20.8274C14.1588 20.5142 14.5574 31.6324 13.5608 35.0778C12.7707 37.8093 8.97635 37.7397 6.78378 33.8249Z" fill="url(#paint0_linear_335_988)"/>
<path d="M2 31.3194C2.86374 30.8496 5.02973 30.693 6.78378 33.8249C8.97635 37.7397 12.7707 37.8093 13.5608 35.0778C14.5574 31.6324 14.1588 20.5142 17.1486 20.8274C18.7412 20.9942 19.1419 24.7422 19.1419 27.8741C19.1419 31.006 20.1121 35.0778 23.1284 35.0778C25.7196 35.0778 26.3176 31.789 27.1149 28.9703C27.9122 26.1516 30.5034 26.4648 30.5034 29.9098C30.5034 34.1261 30.5034 39.3054 33.6926 39.3054C39.2879 39.3054 37.8784 19.5751 39.0743 5.01185C39.4215 0.783907 44.2568 0.314225 44.4561 10.6494C44.6769 22.0965 45.652 27.8737 45.8514 28.9703C46.0507 30.0668 47.0473 32.7289 50.0372 29.7536C52.4291 27.3734 54.2976 28.344 54.8209 29.7536C56.2162 33.5116 57.0534 37.3951 59.6047 37.2698C62.9932 37.1034 63.1926 22.0802 65.1858 12.2148C65.692 9.70936 68.7736 9.70936 68.7736 13.7808C68.7736 18.0406 68.375 24.1159 70.7669 25.8385C72.0308 26.7487 73.6072 26.4649 74.3547 24.1159C74.8331 22.6126 75.3514 12.2148 76.1486 6.8906C76.9459 2.97584 79.9358 3.75873 80.7331 6.8906C81.8493 11.2753 84.137 28.2703 89.1047 24.1159C95.2838 18.9484 98.4025 22.8702 99.6689 18.3219C101.064 13.311 101.463 9.70936 107.642 12.2148C113.76 14.6954 117.409 12.789 119.801 12.2148" stroke="url(#paint1_linear_335_988)" stroke-width="3" stroke-linecap="round" stroke-linejoin="round"/>
<defs>
<linearGradient id="paint0_linear_335_988" x1="60.9003" y1="2.19226" x2="60.9003" y2="56.8434" gradientUnits="userSpaceOnUse">
<stop stop-color="#19B6E6" stop-opacity="0.14"/>
<stop offset="1" stop-color="#19B6E6" stop-opacity="0"/>
</linearGradient>
<linearGradient id="paint1_linear_335_988" x1="116.412" y1="12.3708" x2="20.714" y2="70.3781" gradientUnits="userSpaceOnUse">
<stop stop-color="#19B6E6"/>
<stop offset="1" stop-color="#19B6E6" stop-opacity="0"/>
</linearGradient>
</defs>
</svg>
